<svg xmlns="http://www.w3.org/2000/svg" width="40" height="28.821" viewBox="0 0 40 28.821"><defs><style>.a{fill:#3c4e5a;fill-rule:evenodd;}</style></defs><g transform="translate(-1026.567 -369.83)"><path class="a" d="M1044.569,393.858a1.169,1.169,0,1,1-1.169,1.17,1.172,1.172,0,0,1,1.169-1.17m18.375-7.247a1.17,1.17,0,1,1,1.169-1.17,1.172,1.172,0,0,1-1.169,1.17m0-4.793a3.628,3.628,0,0,0-3.624,3.623,3.579,3.579,0,0,0,.193,1.153l-11.969,6.371a3.616,3.616,0,0,0-6.223.465l-10.753-5.669a4.714,4.714,0,0,1-1.9-4.171,2.2,2.2,0,0,1,.821-1.844,1.043,1.043,0,0,1,1.032.044l.072.038c2.849,1.5,12.174,6.412,12.566,6.6a1.838,1.838,0,0,0,1.975-.1l19.275-10.025a.885.885,0,0,0,.612-.788.925.925,0,0,0-.591-.8c-1.1-.526-2.782-1.315-4.425-2.084-3.513-1.645-7.495-3.509-9.244-4.425a2.979,2.979,0,0,0-2.941.011l-.421.208c-7.87,3.892-18.4,9.108-19,9.473a4.293,4.293,0,0,0-1.825,3.571c-.134,2.561,1.173,5.232,3.041,6.211l11.37,5.864a3.621,3.621,0,0,0,7.2-.465l12.523-6.787a3.623,3.623,0,1,0,2.229-6.478"/></g></svg>