<svg xmlns="http://www.w3.org/2000/svg" width="30.625" height="35" viewBox="0 0 30.625 35"><defs><style>.a{fill:#3c4e5a;}</style></defs><path class="a" d="M20.318,16.625a1.791,1.791,0,1,1-1.785-1.942A1.864,1.864,0,0,1,20.318,16.625Zm-8.173-1.942a1.949,1.949,0,0,0,0,3.885,1.864,1.864,0,0,0,1.785-1.942A1.853,1.853,0,0,0,12.145,14.683ZM30.625,3.605V35c-4.409-3.9-3-2.606-8.12-7.368l.927,3.238H3.588A3.6,3.6,0,0,1,0,27.265V3.605A3.6,3.6,0,0,1,3.588,0h23.45A3.6,3.6,0,0,1,30.625,3.605ZM25.637,20.2a23.435,23.435,0,0,0-2.52-10.2A8.654,8.654,0,0,0,18.2,8.155l-.245.28a11.647,11.647,0,0,1,4.358,2.223A14.87,14.87,0,0,0,9.24,10.15c-.648.3-1.032.507-1.032.507a11.806,11.806,0,0,1,4.6-2.292l-.175-.21A8.654,8.654,0,0,0,7.717,9.993,23.435,23.435,0,0,0,5.2,20.2a6.345,6.345,0,0,0,5.338,2.66s.648-.788,1.173-1.452a5.443,5.443,0,0,1-3.063-2.065c.257.18.682.414.717.438a12.756,12.756,0,0,0,10.92.612A10.014,10.014,0,0,0,22.3,19.355a5.522,5.522,0,0,1-3.168,2.083c.525.665,1.155,1.418,1.155,1.418A6.4,6.4,0,0,0,25.637,20.2Z"/></svg>