<svg xmlns="http://www.w3.org/2000/svg" width="25" height="24.375" viewBox="0 0 25 24.375"><defs><style>.a{fill:#3c4e5a;}</style></defs><path class="a" d="M8.362,20.19c0,.1-.116.181-.262.181-.166.015-.282-.066-.282-.181,0-.1.116-.181.262-.181C8.231,19.993,8.362,20.074,8.362,20.19Zm-1.568-.227c-.035.1.066.217.217.247a.236.236,0,0,0,.313-.1c.03-.1-.066-.217-.217-.262A.259.259,0,0,0,6.794,19.963Zm2.228-.086c-.146.035-.247.131-.232.247.015.1.146.166.3.131s.247-.131.232-.232S9.168,19.862,9.022,19.877ZM12.339.563A12.086,12.086,0,0,0,0,12.861,12.637,12.637,0,0,0,8.543,24.917c.645.116.872-.282.872-.61,0-.312-.015-2.036-.015-3.095,0,0-3.528.756-4.269-1.5,0,0-.575-1.467-1.4-1.845,0,0-1.154-.791.081-.776a2.661,2.661,0,0,1,1.946,1.3A2.664,2.664,0,0,0,9.43,19.444a2.8,2.8,0,0,1,.806-1.7c-2.818-.312-5.66-.721-5.66-5.57a3.82,3.82,0,0,1,1.19-2.969A4.762,4.762,0,0,1,5.9,5.784c1.053-.328,3.478,1.361,3.478,1.361a11.907,11.907,0,0,1,6.331,0s2.424-1.694,3.478-1.361a4.76,4.76,0,0,1,.131,3.422,3.918,3.918,0,0,1,1.3,2.969c0,4.864-2.969,5.252-5.786,5.57a2.981,2.981,0,0,1,.857,2.339c0,1.7-.015,3.8-.015,4.214,0,.328.232.726.872.61A12.52,12.52,0,0,0,25,12.861,12.359,12.359,0,0,0,12.339.563ZM4.9,17.947c-.066.05-.05.166.035.262.081.081.2.116.262.05.066-.05.05-.166-.035-.262C5.081,17.916,4.965,17.881,4.9,17.947Zm-.544-.408c-.035.066.015.146.116.2a.15.15,0,0,0,.217-.035c.035-.066-.015-.146-.116-.2C4.471,17.473,4.39,17.488,4.355,17.538Zm1.633,1.794c-.081.066-.05.217.066.313.116.116.262.131.328.05.066-.066.035-.217-.066-.313C6.2,19.267,6.053,19.252,5.988,19.333Zm-.575-.741c-.081.05-.081.181,0,.3s.217.166.282.116a.23.23,0,0,0,0-.313C5.625,18.577,5.494,18.526,5.413,18.592Z" transform="translate(0 -0.562)"/></svg>