<svg xmlns="http://www.w3.org/2000/svg" width="25" height="25" viewBox="0 0 25 25"><defs><style>.a{fill:#3c4e5a;}</style></defs><path class="a" d="M0,2.25v25H25v-25ZM20.77,8.171,19.431,9.454a.393.393,0,0,0-.151.374v9.448a.384.384,0,0,0,.151.374l1.311,1.283v.285H14.157v-.273l1.356-1.317c.134-.134.134-.173.134-.374v-7.64L11.875,21.19h-.508L6.975,11.614v6.417a.882.882,0,0,0,.246.737l1.763,2.137v.285H3.973v-.285l1.763-2.137a.854.854,0,0,0,.229-.737V10.609a.637.637,0,0,0-.212-.547L4.185,8.171V7.886H9.057l3.761,8.259,3.309-8.253H20.77Z" transform="translate(0 -2.25)"/></svg>