<?xml version="1.0" encoding="utf-8"?>
<!-- Generator: Adobe Illustrator 25.2.3, SVG Export Plug-In . SVG Version: 6.00 Build 0)  -->
<svg version="1.1" id="Reddit_logo" xmlns="http://www.w3.org/2000/svg" xmlns:xlink="http://www.w3.org/1999/xlink" x="0px"
	 y="0px" viewBox="0 0 100 100" style="enable-background:new 0 0 100 100;" xml:space="preserve">
<style type="text/css">
	.st0{fill:#3C4E59;}
</style>
<g>
	<path class="st0" d="M42.9,56.2c0-2.9-2.4-5.3-5.3-5.3c-2.9,0-5.3,2.4-5.3,5.3c0,0,0,0,0,0c0,2.9,2.4,5.3,5.3,5.3
		S42.9,59.1,42.9,56.2z"/>
	<path class="st0" d="M62.4,50.9c-2.9,0-5.3,2.4-5.3,5.3c0,0,0,0,0,0c0,2.9,2.4,5.3,5.3,5.3s5.3-2.4,5.3-5.3S65.3,50.9,62.4,50.9z"
		/>
	<path class="st0" d="M62.1,68.8c-7.2,5.2-17,5.2-24.2,0c-0.6-0.2-1.3,0.1-1.6,0.7c-0.2,0.4-0.1,1,0.3,1.3c8,5.8,18.8,5.8,26.8,0
		c0.5-0.5,0.5-1.3,0-1.7C63,68.7,62.5,68.6,62.1,68.8z"/>
	<path class="st0" d="M50,1C22.9,1,1,22.9,1,50s21.9,49,49,49s49-21.9,49-49S77.1,1,50,1z M81.6,57.8c0.8,6.9-2.3,13.6-8,17.5
		c-6.9,4.8-15.2,7.3-23.6,7.1c-8.4,0.2-16.7-2.3-23.6-7.1c-5.7-3.9-8.8-10.6-8-17.5c-0.3-0.1-0.5-0.3-0.7-0.4
		c-3.7-2.4-4.8-7.3-2.5-11c0.3-0.4,0.6-0.7,0.9-1.1c3.1-3,7.9-2.9,10.9,0.1c6.2-4.5,13.6-7,21.2-7.2l4.5-19.5
		c0.2-0.9,1.1-1.4,1.9-1.2l13.2,2.9c1.3-2.6,4.5-3.6,7.1-2.3c2.6,1.3,3.6,4.5,2.3,7.1c-1.3,2.6-4.5,3.6-7.1,2.3
		c-1.6-0.8-2.6-2.4-2.8-4.1l-12-2.7l-4.1,17.5c7.8,0.1,15.4,2.6,21.8,7.2c3-3.1,7.8-3.1,10.9-0.2c0.3,0.3,0.7,0.7,0.9,1.1
		c0.2,0.2,0.3,0.5,0.4,0.7C87.2,51.1,85.6,55.9,81.6,57.8z"/>
</g>
</svg>
